<?xml version="1.0" encoding="UTF-8"?>
<svg xmlns="http://www.w3.org/2000/svg" viewBox="0 0 64 64" width="64" height="64">
  <rect width="64" height="64" fill="#1a1b26"/>
  <g fill="#9ece6a" shape-rendering="crispEdges">
    <rect x="14" y="18" width="4" height="4"/><rect x="18" y="18" width="4" height="4"/><rect x="22" y="18" width="4" height="4"/><rect x="10" y="22" width="4" height="4"/><rect x="26" y="22" width="4" height="4"/><rect x="10" y="26" width="4" height="4"/><rect x="14" y="30" width="4" height="4"/><rect x="18" y="30" width="4" height="4"/><rect x="22" y="30" width="4" height="4"/><rect x="26" y="34" width="4" height="4"/><rect x="10" y="38" width="4" height="4"/><rect x="26" y="38" width="4" height="4"/><rect x="14" y="42" width="4" height="4"/><rect x="18" y="42" width="4" height="4"/><rect x="22" y="42" width="4" height="4"/>
    <rect x="34" y="18" width="4" height="4"/><rect x="50" y="18" width="4" height="4"/><rect x="38" y="22" width="4" height="4"/><rect x="46" y="22" width="4" height="4"/><rect x="42" y="26" width="4" height="4"/><rect x="42" y="30" width="4" height="4"/><rect x="42" y="34" width="4" height="4"/><rect x="42" y="38" width="4" height="4"/><rect x="42" y="42" width="4" height="4"/>
  </g>
</svg>
